<svg width="1405" height="180" viewBox="0 0 1405 180" fill="none" xmlns="http://www.w3.org/2000/svg">
  <path d="M1261.82 49.8022C1266.24 47.8955 1271.72 46.8352 1277.83 46.8352C1283.93 46.8352 1289.19 47.8955 1293.61 49.8022V154.916H1261.82V49.8022Z" fill="#2C2A29"/>
  <path d="M1261.4 16.3178C1261.4 7.41757 1268.77 0 1277.62 0C1286.66 0 1294.03 7.20598 1294.03 16.3178C1294.03 25.0065 1286.66 32.6364 1277.62 32.6364C1268.77 32.6364 1261.4 25.4305 1261.4 16.3178Z" fill="#2C2A29"/>
  <path d="M39.8799 65.4569C35.842 66.7961 31.8673 64.7589 30.8483 60.8085C28.4382 51.4657 27.2433 46.8027 24.8753 37.4882C23.8117 33.3044 26.4026 28.588 30.6221 27.2658C63.0243 17.897 95.3559 11.8146 128.821 7.6964C132.473 7.3008 136.041 9.67118 137.36 13.2859C140.468 21.7979 142.005 26.0676 145.045 34.6298C146.488 38.6929 144.34 42.7438 140.416 43.2682C106.173 48.33 72.9857 55.2887 39.8799 65.4569Z" fill="#2C2A29"/>
  <path d="M156.832 59.5547C160.28 59.104 163.768 61.6616 165.052 65.4879C167.817 73.7202 169.18 77.8457 171.864 86.1185C173.159 90.1085 171.432 93.9811 168.047 94.5348C114.778 103.063 62.8515 117.365 13.7141 139.829C9.76614 141.75 5.7631 139.78 4.93622 135.502C3.00036 125.498 2.04379 120.5 0.146837 110.515C-0.592486 106.61 1.52415 102.18 5.05296 100.514C53.4276 79.1484 104.442 66.2208 156.832 59.5547Z" fill="#2C2A29"/>
  <path d="M164.882 121.251C163.584 117.167 159.789 114.503 156.183 115.243C123.471 122.327 91.4971 130.865 59.8221 141.729C55.8052 143.201 53.5427 147.431 54.5982 151.322C57.1161 160.593 58.384 165.236 60.9327 174.536C62.13 178.904 67.0426 181.139 71.5677 179.418C103.231 168.1 135.212 158.217 167.893 150.293C171.027 149.533 172.57 145.864 171.405 142.079C168.832 133.73 167.528 129.564 164.882 121.251Z" fill="#2C2A29"/>
  <path fill-rule="evenodd" clip-rule="evenodd" d="M271.27 154.915C299.481 154.915 324.322 138.384 324.322 113.59C324.322 94.7292 316.114 83.0735 296.954 77.5635C309.376 72.689 316.324 63.7879 316.324 50.4379C316.324 27.1249 293.586 13.7749 265.165 13.7749C249.797 13.7749 236.744 15.4708 219.48 18.0139V154.915H271.27ZM268.534 96.2119C282.64 96.2119 289.798 100.874 289.798 112.107C289.798 122.491 282.008 128 268.324 128H251.691V96.2119H268.534ZM251.691 41.5368C256.113 40.9005 260.744 40.4765 265.165 40.4765C278.429 40.4765 284.534 46.6229 284.534 55.3116C284.534 64.4235 278.638 69.7219 266.007 69.7219H251.691V41.5368Z" fill="#2C2A29"/>
  <path fill-rule="evenodd" clip-rule="evenodd" d="M429.44 88.1592V143.894C418.073 152.583 399.756 157.245 374.914 157.245C352.81 157.245 334.493 148.133 334.493 127.999C334.493 97.695 363.756 90.2783 398.493 89.2187C397.862 76.0795 392.598 72.6886 381.018 72.6886C377.172 72.6886 369.313 73.7822 363.499 74.5913C360.086 75.0663 357.378 75.4432 356.6 75.4432C351.545 75.4432 347.546 72.2646 344.178 62.9412L341.65 55.3112C354.703 50.4375 367.546 47.0465 381.441 47.0465C411.756 47.0465 429.44 58.4906 429.44 88.1592ZM398.493 127.789V109.564H392.387C378.073 109.564 365.019 112.743 365.019 122.702C365.019 130.332 370.072 133.087 380.389 133.087C388.599 133.087 395.335 130.542 398.493 127.789Z" fill="#2C2A29"/>
  <path d="M545.353 154.915V79.4712C545.353 58.9136 524.934 46.8347 500.723 46.8347C483.248 46.8347 461.775 51.7092 448.511 60.6103L448.302 154.915H480.09V75.4446C484.091 74.3843 488.724 73.7487 493.565 73.7487C506.407 73.7487 513.775 79.4712 513.775 90.7021V154.915H545.353Z" fill="#2C2A29"/>
  <path d="M559.072 103.207C559.072 66.1194 584.755 46.623 618.018 46.623C627.282 46.623 635.702 47.8949 645.811 50.2263C644.546 60.8225 640.12 70.1459 635.28 75.4444C631.703 74.3849 625.808 73.5369 622.441 73.5369C601.177 73.5369 592.545 84.5571 592.545 101.3C592.545 118.253 600.545 128.638 620.545 128.638C626.02 128.638 632.338 127.577 640.12 124.821L645.811 150.253C634.227 154.915 622.229 157.034 612.755 157.034C580.335 157.034 559.072 137.537 559.072 103.207Z" fill="#2C2A29"/>
  <path fill-rule="evenodd" clip-rule="evenodd" d="M706.86 46.623C674.653 46.623 651.914 67.8145 651.914 101.724C651.914 135.207 673.388 157.034 706.86 157.034C740.13 157.034 761.807 135.841 761.807 101.724C761.807 68.6624 740.333 46.623 706.86 46.623ZM706.86 74.1725C721.598 74.1725 730.021 84.3455 730.021 101.724C730.021 119.948 721.598 129.485 706.86 129.485C692.342 129.485 683.708 119.948 683.708 101.724C683.708 84.3455 692.544 74.1725 706.86 74.1725Z" fill="#2C2A29"/>
  <path d="M779.692 18.8607C787.061 13.3506 803.063 8.68849 811.478 8.68849V154.914H779.692V18.8607Z" fill="#2C2A29"/>
  <path fill-rule="evenodd" clip-rule="evenodd" d="M884.323 46.623C852.116 46.623 829.377 67.8145 829.377 101.724C829.377 135.207 850.851 157.034 884.323 157.034C917.585 157.034 939.27 135.841 939.27 101.724C939.27 68.6624 917.796 46.623 884.323 46.623ZM884.323 74.1725C899.061 74.1725 907.484 84.3455 907.484 101.724C907.484 119.948 899.061 129.485 884.323 129.485C869.796 129.485 861.163 119.948 861.163 101.724C861.163 84.3455 870.007 74.1725 884.323 74.1725Z" fill="#2C2A29"/>
  <path d="M1116.33 79.4712V154.915H1084.95V90.7021C1084.95 79.4712 1077.8 73.7487 1065.17 73.7487C1059.27 73.7487 1053.59 75.0206 1048.95 76.9281C1050.64 81.5902 1051.48 86.6763 1051.48 92.1864V154.915H1020.11V90.7021C1020.11 79.4712 1012.95 73.7487 1000.32 73.7487C995.481 73.7487 990.852 74.3843 986.847 75.4446V154.915H955.061L955.272 60.6103C967.902 51.7092 987.69 46.8347 1004.32 46.8347C1017.59 46.8347 1028.95 51.2853 1037.16 58.4912C1047.9 51.496 1062.85 46.8347 1075.48 46.8347C1098.43 46.8347 1116.33 59.126 1116.33 79.4712Z" fill="#2C2A29"/>
  <path fill-rule="evenodd" clip-rule="evenodd" d="M1184.14 157.034C1221.19 157.034 1243.93 134.781 1243.93 96.2116C1243.93 68.6621 1231.09 46.8342 1199.71 46.8342C1189.82 46.8342 1178.87 51.0731 1169.82 58.913V8.68849C1161.61 8.68849 1145.4 13.3506 1138.03 18.8607V148.77C1148.56 153.643 1166.03 157.034 1184.14 157.034ZM1186.24 73.7482C1202.45 73.7482 1212.56 80.7417 1212.56 100.239C1212.56 117.192 1204.56 131.602 1186.03 131.602C1180.98 131.602 1175.51 131.179 1169.82 130.332V77.1392C1174.45 75.0193 1179.71 73.7482 1186.24 73.7482Z" fill="#2C2A29"/>
  <path fill-rule="evenodd" clip-rule="evenodd" d="M1404.36 143.894V88.1592C1404.36 58.4906 1386.67 47.0465 1356.35 47.0465C1342.46 47.0465 1329.62 50.4375 1316.57 55.3112L1319.09 62.9412C1322.46 72.2646 1326.46 75.4432 1331.52 75.4432C1332.29 75.4432 1335 75.0667 1338.41 74.5922C1344.22 73.783 1352.09 72.6886 1355.93 72.6886C1367.52 72.6886 1372.78 76.0795 1373.41 89.2187C1338.67 90.2783 1309.41 97.695 1309.41 127.999C1309.41 148.133 1327.72 157.245 1349.83 157.245C1374.68 157.245 1392.99 152.583 1404.36 143.894ZM1373.41 109.564V127.789C1370.25 130.542 1363.51 133.087 1355.3 133.087C1344.99 133.087 1339.93 130.332 1339.93 122.702C1339.93 112.743 1352.99 109.564 1367.31 109.564H1373.41Z" fill="#2C2A29"/>
</svg>
