<svg width="582" height="180" viewBox="0 0 582 180" fill="none" xmlns="http://www.w3.org/2000/svg">
  <path d="M29.5551 0.0620117H5.15354C2.30732 0.0620117 0 2.36945 0 5.21561V25.9538C0 28.8 2.30732 31.1073 5.15354 31.1073H29.5551C32.4012 31.1073 34.7086 28.8 34.7086 25.9538V5.21561C34.7086 2.36945 32.4012 0.0620117 29.5551 0.0620117Z" fill="#CA0080"/>
  <path d="M178.696 0.0619601H157.648C154.792 0.0619601 152.494 2.42149 152.494 5.21556V89.3481C152.494 91.0866 150.259 91.7076 149.452 90.1553L100.525 2.29731C99.7174 0.869235 98.2887 0.0619601 96.5501 0.0619601H61.5311C58.675 0.0619601 56.3779 2.42149 56.3779 5.21556V139.641C56.3779 142.498 58.7371 144.795 61.5311 144.795H82.5798C85.4359 144.795 87.7339 142.435 87.7339 139.641V52.9631C87.7339 51.2246 89.9692 50.6037 90.7763 52.1559L141.069 142.622C141.876 144.05 143.305 144.857 145.043 144.857H178.51C181.366 144.857 183.663 142.498 183.663 139.703V5.15341C183.663 2.36094 181.408 0.102741 178.696 0.00340826V0H178.51C178.572 0 178.635 0.00114234 178.696 0.00340826V0.0619601Z" fill="#200020"/>
  <path fill-rule="evenodd" clip-rule="evenodd" d="M305.298 92.3284C305.298 54.4533 280.648 35.6399 253.577 35.6399C218.372 35.6399 198.316 60.0414 198.316 92.9493C198.316 130.39 223.525 148.21 252.77 148.21C282.014 148.21 299.089 133.122 303.684 113.501C304.305 110.956 302.877 108.72 299.089 108.72H282.511C280.648 108.72 278.972 109.714 278.165 111.576C274.005 120.642 267.361 125.423 254.57 125.423C240.103 125.423 230.355 116.357 228.927 97.9166H300.083C303.125 97.9166 305.236 95.6813 305.236 92.3284H305.298ZM230.169 77.9855C233.211 64.3877 241.159 58.365 253.142 58.365C263.822 58.365 273.011 64.574 274.315 77.9855H230.169Z" fill="#200020"/>
  <path d="M554.778 38.3096H575.889C578.735 38.3096 581.042 40.617 581.042 43.4632V139.703C581.042 142.55 578.735 144.857 575.889 144.857H554.778C551.932 144.857 549.625 142.55 549.625 139.703V43.4632C549.625 40.617 551.932 38.3096 554.778 38.3096Z" fill="#200020"/>
  <path fill-rule="evenodd" clip-rule="evenodd" d="M418.862 38.3095H397.814C394.957 38.3095 392.66 40.6691 392.66 43.4632V48.6787C386.389 41.2899 376.02 36.1985 362.422 36.1985C331.998 36.1985 315.916 63.7046 315.916 92.8871C315.916 118.344 329.142 146.906 361.801 146.906C373.474 146.906 385.892 141.318 392.66 133.432V174.846C392.66 177.703 395.02 180 397.814 180H418.862C421.718 180 424.016 177.641 424.016 174.846V43.6494C424.016 40.7932 421.656 38.4958 418.862 38.4958V38.3095ZM370.928 124.181C357.082 124.181 347.334 113.998 347.334 92.142C347.334 70.2862 357.082 58.8615 370.928 58.8615C384.775 58.8615 394.523 69.4169 394.523 92.142C394.523 114.867 384.775 124.181 370.928 124.181Z" fill="#200020"/>
  <path d="M531.122 38.3096C533.916 38.3096 536.275 40.607 536.275 43.4632V100.152C536.275 133.805 517.648 147.465 487.037 147.465C456.427 147.465 437.8 133.867 437.8 100.152V43.4632C437.8 40.6691 440.097 38.3096 442.953 38.3096H464.002C466.796 38.3096 469.155 40.607 469.155 43.4632V97.9165C469.155 115.426 476.979 120.579 486.975 120.579C496.972 120.579 504.795 115.488 504.795 97.9165V43.4632C504.795 40.6691 507.093 38.3096 509.949 38.3096H531.122Z" fill="#200020"/>
</svg>
