<svg width="1663" height="173" viewBox="0 0 1663 173" fill="none" xmlns="http://www.w3.org/2000/svg">
<path d="M880.465 28.7133C880.465 28.7133 882.565 1.15335 917.935 0.67334C953.305 0.18335 1049.9 0.67334 1049.9 0.67334C1049.9 0.67334 1055.84 -0.0466309 1057.6 5.81335C1059.36 11.6734 1063.14 30.5133 1063.14 30.5133C1063.14 30.5133 1064.81 36.0833 1058.3 36.0833H931.805C931.805 36.0833 921.105 36.8833 920.225 46.2633C919.345 55.6433 933.125 57.9833 943.385 59.4533C953.645 60.9233 1049.2 74.4034 1049.2 74.4034C1049.2 74.4034 1076.51 76.5433 1085.35 92.9233C1095.15 111.083 1097.57 130.973 1087.31 151.783C1077.13 172.447 1058.16 172.494 1050.42 172.513L1050.25 172.513C1042.26 172.543 921.675 172.513 921.675 172.513C921.675 172.513 910.185 173.253 907.925 164.173C905.545 154.623 902.875 141.553 902.875 141.553C902.875 141.553 901.295 132.133 912.135 132.133C922.975 132.133 1036.01 135.653 1036.01 135.653C1036.01 135.653 1049.81 137.253 1051.13 124.013C1052.26 112.819 1041.94 111.427 1033.6 110.302C1033.23 110.252 1032.86 110.203 1032.5 110.153C1024 108.983 914.665 91.1033 914.665 91.1033C914.665 91.1033 893.855 87.8834 888.575 72.6334C883.295 57.3934 879.155 35.2033 880.475 28.7033L880.465 28.7133Z" fill="#FF4242"/>
<path d="M616.014 78.6231H552.104L543.694 105.713H570.854L562.214 133.553C562.214 133.553 536.054 132.883 527.324 132.823C516.014 132.753 496.924 131.003 485.414 115.743C472.454 98.5631 481.555 73.1531 491.714 61.1131C501.875 49.0731 516.305 37.2431 549.034 36.1131C581.764 34.9831 606.974 36.1131 606.974 36.1131C606.974 36.1131 611.115 37.2431 613.745 30.0931C616.375 22.9431 622.024 5.64313 622.024 5.64313C622.024 5.64313 624.284 0.983124 616.754 0.683136C609.234 0.383148 541.514 0.683136 541.514 0.683136C541.514 0.683136 491.374 4.38312 462.884 33.4831C434.054 62.9331 435.794 100.443 439.935 115.493C444.075 130.543 459.564 171.473 530.444 172.533H585.584C585.584 172.533 593.365 173.133 595.734 165.523C598.715 155.923 620.214 86.6531 620.214 86.6531C620.214 86.6531 623.154 78.6331 616.004 78.6331L616.014 78.6231Z" fill="#FF4242"/>
<path d="M681.815 0.833069C674.565 0.923065 673.995 8.00308 673.995 8.00308L674.005 8.01306L624.535 167.363C622.895 172.643 628.725 172.533 628.725 172.533C628.725 172.533 658.555 172.543 663.185 172.543C667.255 172.543 668.015 169.103 668.015 169.103C668.015 169.103 705.445 48.4531 708.095 39.9331C709.354 35.8531 713.265 36.0831 713.265 36.0831C713.265 36.0831 742.584 36.1531 749.825 36.1531C756.495 36.1531 757.145 41.7231 757.145 41.7231L765.385 78.6431H714.765L723.165 116.273H773.785L785.334 168.023C786.685 172.533 790.745 172.533 790.745 172.533H824.035C829.845 172.533 828.854 166.413 828.854 166.413C828.854 166.413 801.775 45.0331 800.655 40.0231C799.745 35.9231 803.895 36.0831 803.895 36.0831H809.665C813.755 36.0831 812.165 31.3231 812.165 31.3231L806.545 6.13309C805.295 0.533081 799.625 0.833069 799.625 0.833069C799.625 0.833069 690.005 0.723083 681.815 0.833069Z" fill="#FF4242"/>
<path d="M252.024 8.32306C252.024 8.32306 253.134 0.79303 261.134 0.79303H387.094C387.094 0.79303 392.174 0.733032 393.344 4.51303C394.754 9.05304 402.134 32.8231 402.134 32.8231C402.134 32.8231 403.194 36.083 399.104 36.083H393.745C393.745 36.083 389.464 35.603 390.914 40.233C392.364 44.863 430.224 166.923 430.224 166.923C430.224 166.923 432.435 172.533 426.625 172.533H394.394C394.394 172.533 388.354 172.783 386.654 167.283L370.814 116.233H319.904L308.224 78.6031H359.134L347.194 40.123C347.194 40.123 345.494 36.093 340.784 36.043C333.544 35.983 296.204 36.043 296.204 36.043C296.204 36.043 290.924 35.173 289.544 42.613C288.704 47.153 266.124 169.023 266.124 169.023C266.124 169.023 265.554 172.523 261.484 172.523H226.534C226.534 172.523 221.604 172.253 222.614 166.813C223.874 160.023 252.034 8.32306 252.034 8.32306H252.024Z" fill="#FF4242"/>
<path d="M30.6046 4.39304L0.434626 166.943C0.434626 166.943 -0.595373 172.503 4.22463 172.503C10.0046 172.503 38.5246 172.513 38.5246 172.513C38.5246 172.513 43.1946 172.123 44.1346 167.023C45.3946 160.243 62.1946 69.6931 62.1946 69.6931C62.1946 69.6931 62.8446 67.433 64.4346 68.7831C67.8246 71.653 158.015 169.153 158.015 169.153C158.015 169.153 160.675 172.513 165.195 172.513H190.105C190.105 172.513 193.025 172.473 193.795 168.903C194.705 164.643 224.055 5.84305 224.055 5.84305C224.055 5.84305 225.225 0.843048 219.485 0.843048H184.905C184.905 0.843048 181.065 0.443054 180.315 4.46304C179.565 8.48303 161.795 104.233 161.795 104.233C161.795 104.233 160.975 107.443 159.545 108.013L159.464 108.045C158.198 108.547 156.855 109.079 154.495 107.023C148.995 102.243 59.2046 3.03305 59.2046 3.03305C59.2046 3.03305 57.5846 0.823029 53.7346 0.833038H34.6846C34.6846 0.833038 31.1146 0.713043 30.5946 4.40305L30.6046 4.39304Z" fill="#FF4242"/>
<path d="M871.535 86.5029C871.535 97.9518 862.254 107.233 850.805 107.233C839.356 107.233 830.075 97.9518 830.075 86.5029C830.075 75.0541 839.356 65.7729 850.805 65.7729C862.254 65.7729 871.535 75.0541 871.535 86.5029Z" fill="#FF4242"/>
<path d="M1148.84 36.0831H1142.64C1138.77 36.0831 1140.14 32.923 1140.14 32.923C1140.14 32.923 1146.99 10.8431 1148.86 4.81308C1150.25 0.333069 1154.52 0.833069 1154.52 0.833069H1279.12C1292.98 0.833069 1294.61 13.9431 1294.61 13.9431C1294.61 13.9431 1327.16 159.843 1328.59 166.263C1330.1 173.023 1324.37 172.523 1324.37 172.523H1292.29C1285.57 172.523 1285.05 167.133 1285.05 167.133C1285.05 167.133 1275.95 126.343 1274.79 121.133C1273.86 116.953 1268.62 117.183 1268.62 117.183C1268.62 117.183 1226.35 117.223 1222.91 117.183C1221.01 108.713 1214.3 78.613 1214.3 78.613H1260.11C1265.22 78.613 1264.07 73.1331 1264.07 73.1331C1264.07 73.1331 1257.95 45.6931 1256.8 40.553C1255.81 36.0831 1250.82 36.1031 1250.82 36.1031C1250.82 36.1031 1211.93 36.0831 1202.03 36.1031C1195.75 36.1131 1194.76 40.9731 1194.76 40.9731C1194.76 40.9731 1160.14 152.543 1155.14 168.653C1153.8 172.963 1149.53 172.453 1149.53 172.453H1117.6C1108.85 172.453 1112.49 165.113 1112.49 165.113C1112.49 165.113 1140.89 73.6331 1151.25 40.243C1152.54 36.0831 1148.84 36.0831 1148.84 36.0831Z" fill="#FF4242"/>
<path d="M1326.83 4.35333L1363.24 167.483C1363.24 167.483 1364.37 172.523 1368.75 172.523H1409.31C1409.31 172.523 1415.53 172.993 1413.87 165.833C1412.21 158.673 1401.06 108.423 1401.06 108.423C1401.06 108.423 1414.19 104.313 1427.69 97.4333L1527.93 170.133C1527.93 170.133 1530.22 172.453 1536.56 172.453C1542.9 172.453 1593.26 172.533 1593.26 172.533C1593.26 172.533 1601.74 170.413 1593.2 164.353C1584.66 158.293 1468.17 72.6433 1468.17 72.6433C1468.17 72.6433 1509.75 46.4833 1539.77 4.34332C1539.77 4.34332 1542.47 0.823334 1538.17 0.823334H1483.52C1483.52 0.823334 1480.83 0.483307 1479.18 3.7933C1477.53 7.1033 1450.27 43.1533 1398.36 61.1733C1398.36 61.1733 1391.13 63.9433 1389.69 57.4833L1377.93 4.75333C1377.93 4.75333 1377.28 0.823334 1373.37 0.823334H1330.36C1330.36 0.823334 1325.95 0.363342 1326.82 4.34332L1326.83 4.35333Z" fill="#FF4242"/>
<path d="M1590.73 0.833008C1586.87 0.833008 1587.53 3.44302 1587.53 3.44302V3.43301C1587.53 3.43301 1617.23 164.383 1618.33 169.383C1619.09 172.843 1623.67 172.523 1623.67 172.523H1658.79C1663.55 172.523 1662.57 168.403 1662.57 168.403C1662.57 168.403 1632.6 7.05301 1631.95 3.513C1631.46 0.813019 1627.94 0.833008 1627.94 0.833008H1590.73Z" fill="#FF4242"/>
</svg>
