<svg width="390" height="52" viewBox="0 0 390 52" fill="none" xmlns="http://www.w3.org/2000/svg">
  <path d="M197.445 34.357H205.785V6.15701H217.065C218.765 6.15701 220.595 6.29701 221.975 7.32701C222.955 8.05701 223.805 9.217 223.815 11.107C223.835 12.857 222.805 14.937 220.595 15.947C219.005 16.667 216.745 16.907 216.745 16.907L231.065 34.357H240.575L227.715 18.667C227.715 18.667 229.105 17.717 229.965 16.307C231.415 13.947 231.765 11.487 231.305 8.59701C230.855 5.76701 229.245 3.377 227.005 1.927C226.305 1.467 225.515 1.08701 224.675 0.847006C222.395 0.217006 220.005 0.357004 220.005 0.357004H197.445V34.357Z" fill="white"/>
  <path d="M130.635 34.3668H122.665V20.7568H99.315L99.325 34.4268H91.355L91.345 0.446777H99.315V14.0168H122.665V0.446777H130.625L130.635 34.3668Z" fill="white"/>
  <path d="M282.355 0.446777V6.42678H255.385V14.7268H275.725V20.3768H255.385V28.7768H282.355V34.3568H247.975V0.446777H282.355Z" fill="white"/>
  <path d="M298.195 0.446777L323.205 26.8568L323.225 0.446777H330.735V34.3568H320.845L299.905 12.1168V34.3568H292.405V0.446777H298.195Z" fill="white"/>
  <path d="M363.875 0.537109L338.045 34.3571H348.225L363.875 13.9071L379.525 34.3571H389.715L363.875 0.537109Z" fill="white"/>
  <path d="M138.445 34.3568L164.375 0.426758L190.295 34.3568H180.065L164.375 13.8368L148.675 34.3568H138.445Z" fill="white"/>
  <path d="M196.035 44.8667V46.0867H192.535V47.5067H195.745V48.6367H192.535V50.2567H196.105V51.4767H191.075V44.8667H196.035Z" fill="white"/>
  <path d="M205.915 50.2068C205.645 50.0168 205.505 49.6968 205.505 49.2868V49.2968H204.085C204.085 49.6868 204.165 50.0368 204.315 50.3368C204.465 50.6268 204.675 50.8768 204.935 51.0768C205.195 51.2668 205.495 51.4168 205.835 51.5068C206.175 51.6068 206.525 51.6468 206.905 51.6468C207.775 51.6468 208.455 51.4468 208.935 51.0568C209.415 50.6568 209.655 50.1468 209.655 49.5168C209.655 49.1768 209.585 48.8968 209.445 48.6568C209.315 48.4168 209.145 48.2268 208.935 48.0868C208.735 47.9468 208.545 47.8468 208.355 47.7768C208.175 47.7068 207.965 47.6468 207.745 47.5868C207.725 47.5868 207.705 47.5868 207.685 47.5768C207.605 47.5568 207.555 47.5468 207.535 47.5468C207.065 47.4268 206.735 47.3368 206.535 47.2768C206.335 47.2168 206.165 47.1568 206.045 47.0968C205.925 47.0368 205.825 46.9668 205.785 46.8868C205.735 46.8068 205.715 46.7068 205.715 46.5768C205.715 46.3168 205.815 46.1268 206.015 46.0068C206.215 45.8768 206.445 45.8168 206.725 45.8168C207.115 45.8168 207.425 45.8868 207.655 46.0368C207.885 46.1868 208.015 46.4468 208.035 46.8168H209.445C209.445 46.4468 209.375 46.1168 209.235 45.8468C209.095 45.5668 208.905 45.3468 208.655 45.1768C208.415 45.0068 208.135 44.8768 207.815 44.7968C207.505 44.7168 207.155 44.6768 206.805 44.6768C206.495 44.6768 206.185 44.7168 205.895 44.8068C205.595 44.8968 205.335 45.0168 205.095 45.1868C204.855 45.3568 204.665 45.5668 204.525 45.8168C204.385 46.0668 204.315 46.3668 204.315 46.6868C204.315 46.9868 204.365 47.2468 204.475 47.4568C204.585 47.6768 204.725 47.8468 204.915 47.9868C205.095 48.1268 205.305 48.2368 205.525 48.3268C205.755 48.4068 206.005 48.4868 206.295 48.5668C206.405 48.5968 206.545 48.6368 206.725 48.6868C206.995 48.7468 207.205 48.8068 207.375 48.8568C207.535 48.9068 207.685 48.9668 207.815 49.0368C207.955 49.1068 208.065 49.1968 208.145 49.2968C208.225 49.4068 208.265 49.5268 208.265 49.6768C208.265 49.8468 208.225 49.9768 208.145 50.0868C208.065 50.1968 207.955 50.2768 207.825 50.3368C207.685 50.3968 207.545 50.4368 207.405 50.4668C207.255 50.4968 207.115 50.5068 206.975 50.5068C206.545 50.5068 206.195 50.4068 205.915 50.2068Z" fill="white"/>
  <path d="M285.815 49.2868C285.815 49.6968 285.955 50.0168 286.225 50.2068C286.495 50.4068 286.855 50.5068 287.275 50.5068C287.415 50.5068 287.565 50.4968 287.705 50.4668C287.845 50.4368 287.985 50.3968 288.125 50.3368C288.255 50.2768 288.365 50.1968 288.445 50.0868C288.525 49.9768 288.565 49.8468 288.565 49.6768C288.565 49.5268 288.525 49.4068 288.445 49.2968C288.365 49.1968 288.255 49.1068 288.115 49.0368C287.985 48.9668 287.835 48.9068 287.675 48.8568C287.515 48.8068 287.295 48.7468 287.025 48.6868C286.845 48.6368 286.705 48.5968 286.605 48.5668C286.315 48.4868 286.055 48.4068 285.835 48.3268C285.615 48.2368 285.415 48.1268 285.225 47.9868C285.045 47.8468 284.895 47.6768 284.785 47.4568C284.675 47.2468 284.625 46.9868 284.625 46.6868C284.625 46.3668 284.695 46.0668 284.835 45.8168C284.975 45.5668 285.165 45.3568 285.395 45.1868C285.635 45.0168 285.895 44.8968 286.195 44.8068C286.495 44.7168 286.785 44.6768 287.095 44.6768C287.455 44.6768 287.795 44.7168 288.115 44.7968C288.435 44.8768 288.715 45.0068 288.955 45.1768C289.195 45.3468 289.395 45.5668 289.535 45.8468C289.675 46.1168 289.745 46.4468 289.745 46.8168H288.335C288.315 46.4468 288.195 46.1868 287.955 46.0368C287.725 45.8868 287.415 45.8168 287.025 45.8168C286.755 45.8168 286.515 45.8768 286.325 46.0068C286.125 46.1268 286.035 46.3168 286.035 46.5768C286.035 46.7068 286.055 46.8068 286.105 46.8868C286.155 46.9668 286.245 47.0368 286.365 47.0968C286.495 47.1568 286.655 47.2168 286.855 47.2768C287.055 47.3368 287.395 47.4268 287.855 47.5468C287.875 47.5468 287.925 47.5568 288.005 47.5768C288.025 47.5868 288.045 47.5868 288.065 47.5868C288.295 47.6468 288.495 47.7068 288.675 47.7768C288.865 47.8468 289.055 47.9468 289.255 48.0868C289.465 48.2268 289.635 48.4168 289.765 48.6568C289.895 48.8968 289.965 49.1768 289.965 49.5168C289.965 50.1468 289.725 50.6568 289.245 51.0568C288.765 51.4468 288.085 51.6468 287.215 51.6468C286.835 51.6468 286.475 51.6068 286.145 51.5068C285.805 51.4168 285.505 51.2668 285.245 51.0768C284.985 50.8768 284.775 50.6268 284.625 50.3368C284.475 50.0368 284.395 49.6868 284.395 49.2968H285.815V49.2868Z" fill="white"/>
  <path d="M217.425 46.0969H219.405V51.4969H220.865V46.0969H222.845V44.877H217.425V46.0969Z" fill="white"/>
  <path d="M236.645 48.9867C236.645 49.8667 236.395 50.5267 235.905 50.9767C235.415 51.4267 234.715 51.6467 233.815 51.6467C232.905 51.6467 232.215 51.4267 231.725 50.9767C231.235 50.5367 230.995 49.8667 230.995 48.9767V44.8667H232.445V48.9767C232.445 49.1867 232.465 49.3667 232.495 49.5367C232.525 49.7067 232.595 49.8467 232.695 49.9867C232.785 50.1167 232.935 50.2267 233.115 50.2967C233.295 50.3767 233.525 50.4167 233.805 50.4167C234.305 50.4167 234.665 50.3067 234.865 50.0767C235.075 49.8467 235.175 49.4867 235.175 48.9767V44.8667H236.625V48.9867H236.645Z" fill="white"/>
  <path fill-rule="evenodd" clip-rule="evenodd" d="M248.175 44.8667H245.315V51.4867H248.175C248.675 51.4867 249.105 51.3967 249.485 51.2367C249.855 51.0767 250.175 50.8367 250.425 50.5367C250.675 50.2367 250.865 49.8867 250.985 49.4767C251.115 49.0767 251.175 48.6267 251.175 48.1367C251.175 47.0767 250.895 46.2667 250.345 45.7067C249.795 45.1467 249.065 44.8667 248.175 44.8667ZM248.075 50.2667H246.775V46.0867H247.815C248.505 46.0867 248.995 46.2667 249.285 46.6467C249.565 47.0267 249.715 47.5667 249.715 48.2767C249.715 48.6367 249.675 48.9367 249.585 49.1967C249.505 49.4567 249.375 49.6567 249.225 49.8167C249.075 49.9667 248.895 50.0867 248.705 50.1567C248.505 50.2267 248.295 50.2667 248.075 50.2667Z" fill="white"/>
  <path d="M259.605 44.8667H261.055V51.4867H259.605V44.8667Z" fill="white"/>
  <path fill-rule="evenodd" clip-rule="evenodd" d="M270.345 45.7165C270.055 46.0365 269.845 46.4165 269.695 46.8365C269.545 47.2565 269.465 47.7165 269.475 48.2265C269.475 48.6965 269.545 49.1465 269.695 49.5665C269.845 49.9865 270.065 50.3565 270.345 50.6665C270.625 50.9765 270.965 51.2165 271.375 51.3965C271.785 51.5665 272.235 51.6565 272.735 51.6565C273.235 51.6565 273.685 51.5765 274.095 51.3965C274.495 51.2165 274.845 50.9765 275.125 50.6565C275.415 50.3365 275.615 49.9765 275.765 49.5565C275.915 49.1366 275.985 48.6865 275.985 48.2165C275.985 47.7165 275.915 47.2665 275.765 46.8365C275.625 46.4065 275.415 46.0365 275.125 45.7165C274.845 45.3965 274.495 45.1565 274.095 44.9765C273.685 44.7965 273.235 44.7065 272.735 44.7065C272.235 44.7065 271.775 44.7965 271.375 44.9765C270.965 45.1565 270.625 45.3965 270.345 45.7165ZM271.345 49.7465C271.195 49.5365 271.095 49.2965 271.025 49.0365C270.955 48.7765 270.925 48.4965 270.915 48.2165C270.915 47.9165 270.945 47.6265 271.015 47.3565C271.085 47.0865 271.195 46.8465 271.335 46.6365C271.475 46.4265 271.665 46.2565 271.895 46.1365C272.125 46.0165 272.405 45.9565 272.715 45.9565C273.035 45.9565 273.305 46.0165 273.535 46.1365C273.765 46.2565 273.955 46.4265 274.095 46.6365C274.235 46.8465 274.345 47.0865 274.415 47.3565C274.475 47.6265 274.515 47.9165 274.515 48.2165C274.515 48.5065 274.475 48.7865 274.415 49.0465C274.345 49.3165 274.235 49.5465 274.095 49.7565C273.955 49.9565 273.765 50.1265 273.535 50.2465C273.305 50.3665 273.035 50.4265 272.715 50.4265C272.405 50.4265 272.135 50.3665 271.905 50.2465C271.675 50.1265 271.495 49.9565 271.345 49.7465Z" fill="white"/>
  <path d="M69.4949 34.4369H80.3449L50.8949 2.10693L45.4749 8.06694L69.4949 34.4369Z" fill="white"/>
  <path d="M0.284912 34.4368L31.2249 0.446777L62.1349 34.4368H46.2049L31.2249 17.9668L16.2149 34.4368H0.284912Z" fill="white"/>
</svg>
