<svg width="24" height="24" viewBox="0 0 24 24" fill="none" xmlns="http://www.w3.org/2000/svg">
  <path fill-rule="evenodd" clip-rule="evenodd" d="M7 1C6.44772 1 6 1.44772 6 2V2.2196C4.86706 2.40188 3.91093 2.7478 3.10331 3.43756C2.8643 3.6417 2.6417 3.8643 2.43757 4.10331C1.65915 5.01472 1.31865 6.11527 1.15704 7.44564C0.999968 8.73874 0.999983 10.375 1 12.4332V12.5668C0.999983 14.625 0.999968 16.2613 1.15704 17.5544C1.31865 18.8847 1.65915 19.9853 2.43757 20.8967C2.6417 21.1357 2.8643 21.3583 3.10331 21.5624C4.01472 22.3409 5.11527 22.6814 6.44564 22.843C7.73874 23 9.37499 23 11.4332 23H12.5668C14.625 23 16.2613 23 17.5544 22.843C18.8847 22.6814 19.9853 22.3409 20.8967 21.5624C21.1357 21.3583 21.3583 21.1357 21.5624 20.8967C22.3409 19.9853 22.6814 18.8847 22.843 17.5544C23 16.2613 23 14.625 23 12.5668V12.4332C23 10.375 23 8.73874 22.843 7.44564C22.6814 6.11527 22.3409 5.01472 21.5624 4.10331C21.3583 3.8643 21.1357 3.6417 20.8967 3.43756C20.0891 2.7478 19.1329 2.40188 18 2.2196V2C18 1.44772 17.5523 1 17 1C16.4477 1 16 1.44772 16 2V2.0403C15.0126 1.99998 13.8749 1.99999 12.5668 2H11.4332C10.1251 1.99999 8.98745 1.99998 8 2.0403V2C8 1.44772 7.55229 1 7 1ZM16 5V4.04183C15.0545 4.00075 13.9137 4 12.5 4H11.5C10.0863 4 8.94548 4.00075 8 4.04183V5C8 5.55228 7.55229 6 7 6C6.44772 6 6 5.55228 6 5V4.25213C5.26855 4.40261 4.78475 4.63165 4.40221 4.95838C4.24287 5.09447 4.09447 5.24287 3.95838 5.40221C3.53882 5.89344 3.28034 6.55165 3.14245 7.68681C3.13011 7.7884 3.11884 7.89274 3.10854 8H20.8915C20.8812 7.89274 20.8699 7.7884 20.8576 7.68681C20.7197 6.55165 20.4612 5.89344 20.0416 5.40221C19.9055 5.24287 19.7571 5.09447 19.5978 4.95838C19.2152 4.63165 18.7314 4.40261 18 4.25213V5C18 5.55228 17.5523 6 17 6C16.4477 6 16 5.55228 16 5ZM20.987 10H3.01296C3.00034 10.7261 3 11.5517 3 12.5C3 14.6401 3.00173 16.1547 3.14245 17.3132C3.28034 18.4483 3.53882 19.1066 3.95838 19.5978C4.09447 19.7571 4.24287 19.9055 4.40221 20.0416C4.89344 20.4612 5.55165 20.7197 6.68681 20.8576C7.84526 20.9983 9.35989 21 11.5 21H12.5C14.6401 21 16.1547 20.9983 17.3132 20.8576C18.4484 20.7197 19.1066 20.4612 19.5978 20.0416C19.7571 19.9055 19.9055 19.7571 20.0416 19.5978C20.4612 19.1066 20.7197 18.4483 20.8576 17.3132C20.9983 16.1547 21 14.6401 21 12.5C21 11.5517 20.9997 10.7261 20.987 10Z" fill="#0F0F0F"/>
  <path d="M8 13C8 12.4477 8.44771 12 9 12C9.55228 12 10 12.4477 10 13V14C10 14.5523 9.55228 15 9 15C8.44771 15 8 14.5523 8 14V13Z" fill="#f12d2d"/>
  <path d="M14 13C14 12.4477 14.4477 12 15 12C15.5523 12 16 12.4477 16 13V14C16 14.5523 15.5523 15 15 15C14.4477 15 14 14.5523 14 14V13Z" fill="#f12d2d"/>
  <path d="M13.2929 16.7929C12.5788 17.5069 11.4212 17.5069 10.7071 16.7929C10.3166 16.4024 9.68342 16.4024 9.29289 16.7929C8.90237 17.1834 8.90237 17.8166 9.29289 18.2071C10.788 19.7022 13.212 19.7022 14.7071 18.2071C15.0976 17.8166 15.0976 17.1834 14.7071 16.7929C14.3166 16.4024 13.6834 16.4024 13.2929 16.7929Z" fill="#f12d2d"/>
</svg>
