<svg width="24" height="24" viewBox="0 0 24 24" fill="none" xmlns="http://www.w3.org/2000/svg">
<path fill-rule="evenodd" clip-rule="evenodd" d="M11.2012 0.623011C11.7239 0.478622 12.276 0.478622 12.7987 0.623011C13.2477 0.747047 13.6112 0.989634 13.9444 1.26815C14.2595 1.53161 14.6118 1.88396 15.0203 2.29245L15.0502 2.32236C15.4659 2.73808 15.5527 2.81398 15.6387 2.86408C15.7165 2.90938 15.8 2.94397 15.887 2.96692C15.9832 2.99231 16.0983 3 16.6862 3L16.7285 3C17.306 2.99998 17.8042 2.99996 18.2133 3.03649C18.6458 3.07512 19.0743 3.16059 19.4795 3.39035C19.9513 3.6579 20.3418 4.04838 20.6094 4.52024C20.8391 4.92542 20.9246 5.35393 20.9632 5.78638C20.9997 6.19544 20.9997 6.69364 20.9997 7.27121V7.31354C20.9997 7.90144 21.0074 8.01647 21.0328 8.1127C21.0557 8.19971 21.0903 8.28323 21.1356 8.36099C21.1857 8.44698 21.2616 8.53377 21.6774 8.9495L21.7073 8.97944C22.1159 9.38798 22.4683 9.74038 22.7318 10.0556C23.0103 10.3888 23.253 10.7524 23.377 11.2015C23.5213 11.7241 23.5213 12.2759 23.377 12.7985C23.253 13.2476 23.0103 13.6112 22.7318 13.9444C22.4683 14.2596 22.1159 14.612 21.7073 15.0206L21.6774 15.0505C21.2616 15.4662 21.1857 15.553 21.1356 15.639C21.0903 15.7168 21.0557 15.8003 21.0328 15.8873C21.0074 15.9835 20.9997 16.0986 20.9997 16.6865V16.7288C20.9997 17.3064 20.9997 17.8046 20.9632 18.2136C20.9246 18.6461 20.8391 19.0746 20.6094 19.4798C20.3418 19.9516 19.9513 20.3421 19.4795 20.6097C19.0743 20.8394 18.6458 20.9249 18.2133 20.9635C17.8043 21 17.3061 21 16.7285 21H16.6862C16.0983 21 15.9832 21.0077 15.887 21.0331C15.8 21.056 15.7165 21.0906 15.6387 21.1359C15.5527 21.186 15.4659 21.2619 15.0502 21.6776L15.0203 21.7075C14.6118 22.116 14.2595 22.4684 13.9444 22.7319C13.6112 23.0104 13.2477 23.253 12.7987 23.377C12.276 23.5214 11.7239 23.5214 11.2012 23.377C10.7521 23.253 10.3886 23.0104 10.0555 22.7319C9.74036 22.4684 9.38805 22.1161 8.9796 21.7076L8.94968 21.6777C8.53392 21.2619 8.44713 21.186 8.36113 21.1359C8.28338 21.0906 8.19988 21.056 8.11289 21.0331C8.01666 21.0077 7.9016 21 7.31362 21H7.27129C6.69355 21 6.19521 21 5.78604 20.9635C5.35348 20.9249 4.92486 20.8393 4.5196 20.6095C4.04801 20.342 3.65772 19.9517 3.39023 19.4801C3.16037 19.0748 3.07485 18.6462 3.03621 18.2136C2.99966 17.8045 2.99968 17.3061 2.9997 16.7283L2.9997 16.686C2.9997 16.0981 2.99201 15.9831 2.96663 15.8869C2.94367 15.7998 2.90907 15.7163 2.86377 15.6385C2.81368 15.5525 2.73778 15.4658 2.3221 15.0501L2.29216 15.0202C1.88376 14.6118 1.53149 14.2595 1.26809 13.9445C0.98962 13.6114 0.747067 13.248 0.623013 12.799C0.478527 12.2761 0.478527 11.7239 0.623013 11.201C0.747067 10.752 0.98962 10.3886 1.26809 10.0555C1.53149 9.74046 1.88376 9.38821 2.29216 8.97985L2.3221 8.94991C2.73778 8.53423 2.81368 8.44745 2.86377 8.36147C2.90907 8.2837 2.94367 8.20017 2.96663 8.11315C2.99201 8.01693 2.9997 7.90189 2.9997 7.31399L2.9997 7.27167C2.99968 6.6939 2.99966 6.19555 3.03621 5.78636C3.07485 5.35379 3.16037 4.92517 3.39023 4.5199C3.65772 4.04831 4.04801 3.65802 4.5196 3.39054C4.92486 3.16067 5.35348 3.07515 5.78604 3.03651C6.19521 2.99996 6.69356 2.99998 7.2713 3L7.31362 3C7.9016 3 8.01665 2.99231 8.11289 2.96692C8.19988 2.94396 8.28338 2.90938 8.36113 2.86409C8.44713 2.814 8.53392 2.73809 8.94968 2.32233L8.97959 2.29241C9.38804 1.88393 9.74036 1.53159 10.0555 1.26814C10.3886 0.989628 10.7521 0.747046 11.2012 0.623011ZM12.2662 2.55082C12.0919 2.50269 11.9079 2.50269 11.7337 2.55082C11.6741 2.56727 11.5663 2.61194 11.3383 2.80256C11.0999 3.00183 10.8107 3.28972 10.3639 3.73654C10.3422 3.75822 10.3207 3.77973 10.2994 3.80108C9.98475 4.11641 9.70709 4.39464 9.36779 4.59228C9.13456 4.72813 8.88406 4.83189 8.62308 4.90075C8.24341 5.00092 7.85033 5.00051 7.40482 5.00006C7.37466 5.00003 7.34427 5 7.31362 5C6.68161 5 6.27349 5.00093 5.96399 5.02858C5.66792 5.05503 5.56009 5.09969 5.50633 5.13018C5.34913 5.21934 5.21904 5.34944 5.12988 5.50663C5.09939 5.56039 5.05473 5.66822 5.02828 5.96431C5.00063 6.27382 4.9997 6.68196 4.9997 7.31399C4.9997 7.34463 4.99973 7.37503 4.99976 7.40518C5.00021 7.85062 5.00061 8.24364 4.90048 8.62325C4.83161 8.88433 4.72782 9.13491 4.59191 9.36821C4.39428 9.70745 4.11611 9.98506 3.80083 10.2997C3.77949 10.321 3.75798 10.3425 3.73631 10.3641C3.28956 10.8109 3.00173 11.1 2.80249 11.3383C2.61189 11.5663 2.56723 11.6741 2.55077 11.7337C2.50261 11.908 2.50261 12.092 2.55077 12.2663C2.56723 12.3259 2.61189 12.4337 2.80249 12.6617C3.00173 12.9 3.28956 13.1891 3.73631 13.6359C3.75798 13.6575 3.77949 13.679 3.80083 13.7003C4.11611 14.0149 4.39428 14.2926 4.59191 14.6318C4.72782 14.8651 4.83161 15.1157 4.90048 15.3767C5.00061 15.7564 5.00021 16.1494 4.99976 16.5948C4.99973 16.625 4.9997 16.6554 4.9997 16.686C4.9997 17.318 5.00063 17.7262 5.02828 18.0357C5.05473 18.3318 5.09939 18.4396 5.12988 18.4934C5.21904 18.6506 5.34913 18.7807 5.50633 18.8698C5.56009 18.9003 5.66792 18.945 5.96399 18.9714C6.27349 18.9991 6.68162 19 7.31362 19C7.34426 19 7.37466 19 7.40481 18.9999C7.85032 18.9995 8.2434 18.9991 8.62308 19.0993C8.88406 19.1681 9.13456 19.2719 9.3678 19.4077C9.7071 19.6054 9.98476 19.8836 10.2995 20.1989C10.3208 20.2203 10.3422 20.2418 10.3639 20.2635C10.8107 20.7103 11.0999 20.9982 11.3383 21.1974C11.5663 21.3881 11.6741 21.4327 11.7337 21.4492C11.9079 21.4973 12.0919 21.4973 12.2662 21.4492C12.3257 21.4327 12.4336 21.3881 12.6616 21.1974C12.9 20.9982 13.1892 20.7103 13.636 20.2634C13.6577 20.2418 13.6791 20.2202 13.7005 20.1989C14.0151 19.8836 14.2927 19.6054 14.632 19.4078C14.8653 19.2719 15.1158 19.1681 15.3769 19.0992C15.7565 18.9991 16.1495 18.9995 16.595 18.9999C16.6251 19 16.6555 19 16.6862 19C17.318 19 17.726 18.9991 18.0354 18.9714C18.3314 18.945 18.4392 18.9004 18.493 18.8699C18.6502 18.7807 18.7804 18.6505 18.8696 18.4933C18.9001 18.4395 18.9447 18.3317 18.9711 18.0357C18.9988 17.7263 18.9997 17.3183 18.9997 16.6865C18.9997 16.6558 18.9997 16.6254 18.9996 16.5953C18.9992 16.1498 18.9988 15.7568 19.0989 15.3772C19.1678 15.1161 19.2716 14.8656 19.4075 14.6323C19.6051 14.293 19.8833 14.0154 20.1986 13.7007C20.22 13.6794 20.2415 13.658 20.2631 13.6363C20.7101 13.1894 20.998 12.9001 21.1973 12.6617C21.388 12.4336 21.4327 12.3257 21.4491 12.2662C21.4972 12.092 21.4972 11.908 21.4491 11.7338C21.4327 11.6743 21.388 11.5664 21.1973 11.3383C20.998 11.0999 20.7101 10.8106 20.2631 10.3637C20.2415 10.342 20.22 10.3206 20.1986 10.2993C19.8833 9.9846 19.6051 9.70697 19.4075 9.36772C19.2716 9.13443 19.1678 8.88387 19.0989 8.62282C18.9988 8.24319 18.9992 7.85017 18.9996 7.40472C18.9997 7.37457 18.9997 7.34419 18.9997 7.31354C18.9997 6.68172 18.9988 6.27371 18.9711 5.96429C18.9447 5.6683 18.9001 5.56049 18.8696 5.50674C18.7804 5.34946 18.6502 5.2193 18.493 5.13012C18.4392 5.09964 18.3314 5.055 18.0354 5.02856C17.726 5.00093 17.318 5 16.6862 5C16.6555 5 16.6251 5.00003 16.595 5.00006C16.1495 5.00051 15.7565 5.00091 15.3769 4.90077C15.1158 4.83191 14.8653 4.72813 14.632 4.59223C14.2927 4.3946 14.0151 4.11641 13.7004 3.80111C13.6791 3.77976 13.6577 3.75825 13.636 3.73658C13.1892 3.28974 12.9 3.00185 12.6616 2.80257C12.4336 2.61194 12.3257 2.56727 12.2662 2.55082Z" fill="#0F0F0F"/>
<path d="M16.7071 7.29289C17.0976 7.68342 17.0976 8.31658 16.7071 8.70711L8.70711 16.7071C8.31658 17.0976 7.68342 17.0976 7.29289 16.7071C6.90237 16.3166 6.90237 15.6834 7.29289 15.2929L15.2929 7.29289C15.6834 6.90237 16.3166 6.90237 16.7071 7.29289Z" fill="#f12d2d"/>
<path d="M10 8.5C10 9.32843 9.32843 10 8.5 10C7.67157 10 7 9.32843 7 8.5C7 7.67157 7.67157 7 8.5 7C9.32843 7 10 7.67157 10 8.5Z" fill="#f12d2d"/>
<path d="M15.5 17C16.3284 17 17 16.3284 17 15.5C17 14.6716 16.3284 14 15.5 14C14.6716 14 14 14.6716 14 15.5C14 16.3284 14.6716 17 15.5 17Z" fill="#f12d2d"/>
</svg>
