<svg width="24" height="24" viewBox="0 0 24 24" fill="none" xmlns="http://www.w3.org/2000/svg">
  <path d="M6 12C6 11.4477 6.44772 11 7 11H17C17.5523 11 18 11.4477 18 12C18 12.5523 17.5523 13 17 13H7C6.44772 13 6 12.5523 6 12Z" fill="#0f0f0f"/>
  <path d="M11.707 17.7071L11.7927 17.7929C12.1833 18.1834 12.8164 18.1834 13.207 17.7929L18.2927 12.7071C18.6833 12.3166 18.6833 11.6834 18.2927 11.2929L13.207 6.20711C12.8164 5.81658 12.1833 5.81658 11.7927 6.20711L11.707 6.29289C11.3164 6.68342 11.3164 7.31658 11.707 7.70711L15.9998 12L11.707 16.2929C11.3164 16.6834 11.3164 17.3166 11.707 17.7071Z" fill="#f12d2d"/>
</svg>
