<svg width="24" height="24" viewBox="0 0 24 24" fill="none" xmlns="http://www.w3.org/2000/svg">
  <path fill-rule="evenodd" clip-rule="evenodd" d="M7.51158 4.69877C8.43388 4.17174 9.56612 4.17174 10.4884 4.69877L15.4884 7.55591C16.4231 8.09004 17 9.08407 17 10.1606V16.8393C17 17.9159 16.4231 18.91 15.4884 19.4441L10.4884 22.3012C9.56612 22.8283 8.43388 22.8283 7.51158 22.3012L2.51158 19.4441C1.57686 18.91 1 17.9159 1 16.8393V10.1606C1 9.08407 1.57686 8.09004 2.51158 7.55591L7.51158 4.69877ZM3 16.8393V10.611L8 13.5702V20.2768L3.50386 17.7076C3.19229 17.5296 3 17.1982 3 16.8393ZM14.4961 17.7076L10 20.2768V13.5702L15 10.611V16.8393C15 17.1982 14.8077 17.5296 14.4961 17.7076Z" fill="#0f0f0f"/>
  <path d="M22.7071 2.70711C23.0976 2.31658 23.0976 1.68342 22.7071 1.29289C22.3166 0.902369 21.6834 0.902369 21.2929 1.29289L20 2.58579L18.7071 1.29289C18.3166 0.902369 17.6834 0.902369 17.2929 1.29289C16.9024 1.68342 16.9024 2.31658 17.2929 2.70711L18.5858 4L17.2929 5.29289C16.9024 5.68342 16.9024 6.31658 17.2929 6.70711C17.6834 7.09763 18.3166 7.09763 18.7071 6.70711L20 5.41421L21.2929 6.70711C21.6834 7.09763 22.3166 7.09763 22.7071 6.70711C23.0976 6.31658 23.0976 5.68342 22.7071 5.29289L21.4142 4L22.7071 2.70711Z" fill="#E43636"/>
</svg>
