<svg width="24" height="24" viewBox="0 0 24 24" fill="none" xmlns="http://www.w3.org/2000/svg">
  <path d="M18 12C18 12.5523 17.5523 13 17 13L7 13C6.44772 13 6 12.5523 6 12C6 11.4477 6.44772 11 7 11L17 11C17.5523 11 18 11.4477 18 12Z" fill="#0f0f0f"/>
  <path d="M12.293 6.29289L12.2073 6.20711C11.8167 5.81658 11.1836 5.81658 10.793 6.20711L5.70726 11.2929C5.31673 11.6834 5.31673 12.3166 5.70726 12.7071L10.793 17.7929C11.1836 18.1834 11.8167 18.1834 12.2073 17.7929L12.293 17.7071C12.6836 17.3166 12.6836 16.6834 12.293 16.2929L8.00015 12L12.293 7.70711C12.6836 7.31658 12.6836 6.68342 12.293 6.29289Z" fill="#f12d2d"/>
</svg>
