<svg width="24" height="24" viewBox="0 0 24 24" fill="none" xmlns="http://www.w3.org/2000/svg">
<path fill-rule="evenodd" clip-rule="evenodd" d="M12 9C12 8.44772 12.4477 8 13 8H21C21.5523 8 22 8.44772 22 9C22 9.55228 21.5523 10 21 10H13C12.4477 10 12 9.55228 12 9Z" fill="#f12d2d"/>
<path fill-rule="evenodd" clip-rule="evenodd" d="M2 3C2.71191 3 3.1646 3.00141 3.50645 3.03914C3.825 3.0743 3.94244 3.13214 4.01185 3.18072C4.0404 3.20071 4.06788 3.22217 4.09419 3.24502C4.15816 3.30057 4.24275 3.40047 4.35412 3.70098C4.47364 4.02348 4.5848 4.46231 4.75746 5.15296L6.06986 10.4025C6.25319 11.1359 6.40587 11.7467 6.57443 12.2389C6.66653 12.5078 6.76968 12.7615 6.897 13H6C4.34315 13 3 14.3431 3 16C3 17.6569 4.34315 19 6 19H20C20.5523 19 21 18.5523 21 18C21 17.4477 20.5523 17 20 17H6C5.44772 17 5 16.5523 5 16C5 15.4477 5.44772 15 6 15H16.1355C16.8472 15 17.4399 15 17.9289 14.9608C18.4413 14.9196 18.9127 14.8313 19.3684 14.6157C19.9033 14.3626 20.3753 13.9941 20.7505 13.5366C21.0702 13.1468 21.2702 12.7109 21.4344 12.2238C21.5911 11.7589 21.7348 11.1838 21.9074 10.4934L21.9296 10.4047C22.2017 9.31638 22.4237 8.42838 22.5311 7.70449C22.6415 6.96009 22.6534 6.2602 22.4009 5.58985C22.1142 4.82884 21.6023 4.17329 20.9336 3.71058C20.3445 3.30301 19.6626 3.14483 18.9137 3.07139C18.1853 2.99997 17.27 2.99998 16.1482 3H11.6372C10.6127 2.99999 9.77672 2.99997 9.10877 3.06C8.42282 3.12164 7.79511 3.25404 7.2398 3.59715C6.99357 3.74929 6.7663 3.92661 6.56104 4.1252C6.45242 3.70199 6.34774 3.32509 6.22948 3.00598C6.05462 2.53414 5.81763 2.09285 5.40568 1.73505C5.32675 1.6665 5.24429 1.60212 5.15864 1.54217C4.71162 1.2293 4.22603 1.10642 3.72586 1.05122C3.26122 0.999934 2.69702 0.999963 2.05111 0.999996L2 1C1.44772 1 1 1.44771 1 2C1 2.55228 1.44772 3 2 3ZM8 9.8769L7.96551 9.73892C7.70525 8.69784 7.52692 7.9794 7.43923 7.41953C7.35222 6.86399 7.37623 6.58266 7.43674 6.39278C7.58174 5.93774 7.88478 5.54961 8.29106 5.29858C8.4606 5.19383 8.72771 5.1023 9.28777 5.05197C9.85553 5.00095 10.6012 5 11.6847 5H16.0961C17.2827 5 18.0994 5.00113 18.7185 5.06184C19.3282 5.12163 19.6144 5.22993 19.7956 5.35529C20.13 5.58664 20.3859 5.91442 20.5293 6.29493C20.6069 6.50111 20.6426 6.8051 20.5527 7.41109C20.4615 8.02641 20.2645 8.81902 19.9767 9.97014C19.7921 10.7085 19.6672 11.2052 19.5392 11.585C19.4158 11.951 19.3117 12.1371 19.2041 12.2683C19.0165 12.4971 18.7805 12.6813 18.5131 12.8078C18.3596 12.8804 18.1539 12.9363 17.7688 12.9672C17.3693 12.9993 16.8572 13 16.0961 13H12C11.1915 13 10.6475 12.9992 10.224 12.9631C9.81621 12.9284 9.59954 12.8658 9.43809 12.7839C9.20692 12.6667 9.00073 12.5058 8.83099 12.3099C8.71244 12.1731 8.59915 11.9781 8.46655 11.5909C8.32885 11.1888 8.19608 10.6612 8 9.8769Z" fill="#0F0F0F"/>
<path d="M8.5 23C9.32843 23 10 22.3284 10 21.5C10 20.6716 9.32843 20 8.5 20C7.67157 20 7 20.6716 7 21.5C7 22.3284 7.67157 23 8.5 23Z" fill="#0F0F0F"/>
<path d="M18.5 23C19.3284 23 20 22.3284 20 21.5C20 20.6716 19.3284 20 18.5 20C17.6716 20 17 20.6716 17 21.5C17 22.3284 17.6716 23 18.5 23Z" fill="#0F0F0F"/>
</svg>
