<svg width="24" height="24" viewBox="0 0 24 24" fill="none" xmlns="http://www.w3.org/2000/svg">
<path fill-rule="evenodd" clip-rule="evenodd" d="M6.0068 6.71175C6.15721 3.5319 8.78293 1 12 1C15.2171 1 17.8428 3.53194 17.9932 6.71183C18.8579 7.17535 19.6004 7.84647 20.1503 8.67106C20.7018 9.498 20.9777 10.5338 21.4017 12.1255L21.4614 12.3496C21.832 13.7393 22.1246 14.8363 22.2927 15.7273C22.4633 16.6315 22.5265 17.4201 22.3755 18.1758C22.0102 20.0038 20.8161 21.5581 19.144 22.382C18.4527 22.7227 17.6744 22.8648 16.7568 22.9329C15.8526 23 14.7172 23 13.279 23H10.721C9.28273 23 8.14728 23 7.24305 22.9329C6.32544 22.8648 5.54712 22.7227 4.85587 22.382C3.18378 21.5581 1.98963 20.0038 1.62433 18.1758C1.47331 17.4201 1.53655 16.6315 1.70716 15.7273C1.8753 14.8363 2.16785 13.7392 2.53845 12.3495L2.59815 12.1255C3.02214 10.5338 3.29804 9.498 3.84951 8.67106C4.39945 7.84643 5.14203 7.17528 6.0068 6.71175ZM8.10848 6.07083C8.5274 4.30978 10.1107 3 12 3C13.8893 3 15.4726 4.30979 15.8915 6.07085C15.2162 5.99948 14.4284 5.99969 13.4287 5.99997H10.5712C9.5715 5.99969 8.78373 5.99947 8.10848 6.07083ZM7.55443 8.21266C8.14215 8.01297 8.85556 8 10.762 8H13.2378C15.1443 8 15.8577 8.01297 16.4454 8.21266C17.2799 8.49622 17.9974 9.04745 18.4864 9.78071C18.8308 10.2971 19.0271 10.9831 19.5184 12.8252C19.9019 14.2633 20.1746 15.2887 20.3274 16.0982C20.4792 16.9029 20.4916 17.3971 20.4143 17.7839C20.1708 19.0025 19.3747 20.0387 18.26 20.588C17.9061 20.7624 17.4254 20.8777 16.6088 20.9384C15.7873 20.9994 14.7262 21 13.2378 21H10.762C9.2737 21 8.21256 20.9994 7.39111 20.9384C6.57443 20.8777 6.09371 20.7624 5.73991 20.588C4.62518 20.0387 3.82909 19.0025 3.58555 17.7839C3.50825 17.3971 3.52063 16.9029 3.67248 16.0982C3.82522 15.2887 4.09801 14.2633 4.48149 12.8252C4.97271 10.9831 5.16906 10.2971 5.51345 9.78071C6.00245 9.04745 6.71993 8.49622 7.55443 8.21266Z" fill="#0F0F0F"/>
<path fill-rule="evenodd" clip-rule="evenodd" d="M12 15C13.6569 15 15 13.6569 15 12C15 11.4477 15.4477 11 16 11C16.5523 11 17 11.4477 17 12C17 14.7614 14.7614 17 12 17C9.23858 17 7 14.7614 7 12C7 11.4477 7.44771 11 8 11C8.55228 11 9 11.4477 9 12C9 13.6569 10.3431 15 12 15Z" fill="#0086FF"/>
</svg>
