<svg width="40" height="40" viewBox="0 0 40 40" fill="none" xmlns="http://www.w3.org/2000/svg">
  <path d="M19 20C19 19.4477 18.5523 19 18 19C17.4477 19 17 19.4477 17 20V26C17 26.5523 17.4477 27 18 27C18.5523 27 19 26.5523 19 26V20Z" fill="#f12d2d"/>
  <path d="M23 20C23 19.4477 22.5523 19 22 19C21.4477 19 21 19.4477 21 20V26C21 26.5523 21.4477 27 22 27C22.5523 27 23 26.5523 23 26V20Z" fill="#f12d2d"/>
  <path fill-rule="evenodd" clip-rule="evenodd" d="M11.1646 17.4864L12.1539 17.3215C12.1371 17.4483 12.1283 17.5772 12.1279 17.7078C12.1276 17.8203 12.1363 17.9419 12.1465 18.083L12.6096 24.5661C12.6998 25.83 12.7744 26.8752 12.9427 27.7006C13.1197 28.5687 13.4241 29.3281 14.0678 29.9275C14.7115 30.5268 15.4906 30.7764 16.3692 30.891C17.2044 31.0001 18.2523 31 19.5194 31H20.4811C21.7481 31 22.7961 31.0001 23.6313 30.891C24.5098 30.7764 25.289 30.5268 25.9327 29.9275C26.5764 29.3281 26.8808 28.5687 27.0578 27.7006C27.226 26.8752 27.3007 25.83 27.3909 24.5661L27.854 18.083C27.8641 17.9419 27.8728 17.8203 27.8725 17.7078C27.8722 17.5772 27.8634 17.4483 27.8466 17.3215L28.8358 17.4864C29.3805 17.5772 29.8958 17.2092 29.9865 16.6644C30.0773 16.1196 29.7093 15.6044 29.1646 15.5136L26.9482 15.1442C26.5262 11.6819 23.5763 9 20 9C16.4237 9 13.4738 11.6819 13.0518 15.1443L10.8358 15.5136C10.291 15.6044 9.92297 16.1196 10.0138 16.6644C10.1046 17.2092 10.6198 17.5772 11.1646 17.4864ZM15.1764 14.679C15.7557 12.5586 17.6958 11 20 11C22.3041 11 24.2443 12.5586 24.8236 14.6789C24.5576 14.6411 24.383 14.6167 24.2085 14.5943C21.4145 14.2351 18.586 14.2351 15.792 14.5943C15.6173 14.6168 15.4427 14.6411 15.1764 14.679ZM16.047 16.578C18.6717 16.2405 21.3288 16.2405 23.9535 16.578C24.1675 16.6055 24.3827 16.6362 24.8316 16.7003C25.0195 16.7272 25.0597 16.7336 25.0869 16.7396C25.5446 16.8401 25.8712 17.2449 25.8725 17.7135C25.8726 17.7413 25.8704 17.782 25.8569 17.9713L25.4008 24.3562C25.3045 25.7046 25.2372 26.6187 25.0981 27.301C24.9647 27.9553 24.79 28.2587 24.5698 28.4637C24.3496 28.6688 24.0345 28.8214 23.3724 28.9079C22.6819 28.998 21.7653 29 20.4135 29H19.5869C18.2352 29 17.3186 28.998 16.6281 28.9079C15.966 28.8214 15.6509 28.6688 15.4307 28.4637C15.2105 28.2587 15.0357 27.9553 14.9024 27.301C14.7633 26.6187 14.696 25.7046 14.5997 24.3562L14.1436 17.9713C14.1301 17.782 14.1279 17.7413 14.1279 17.7135C14.1293 17.2449 14.4558 16.8401 14.9136 16.7396C14.9407 16.7336 14.981 16.7272 15.1689 16.7003C15.6178 16.6362 15.833 16.6055 16.047 16.578Z" fill="#0F0F0F"/>
</svg>
