<svg width="1530" height="311" viewBox="0 0 1530 311" fill="none" xmlns="http://www.w3.org/2000/svg">
  <path d="M1163.17 307.84C1043.56 307.84 884.507 307.84 728.977 307.84C594.937 307.84 463.517 307.84 362.197 307.84C356.297 307.84 348.977 307.2 344.677 302.22C340.047 297.2 340.057 289.81 340.057 284.92V215.03C154.697 215.04 22.4567 215.05 22.4567 215.05H22.4067C21.3967 215.05 12.3667 214.86 6.83671 208.4C3.18671 204.14 1.91669 198.27 3.05669 190.95C6.97669 165.8 34.6967 25.8301 35.7467 20.5501C36.3167 14.2701 41.5567 2.66016 57.5067 2.66016H971.087C971.397 2.66016 978.737 2.75013 981.617 10.2601C983.797 15.9401 995.717 54.1502 1000.84 70.7202L1014.5 11.9702C1014.92 8.81015 1017.68 3.11014 1025.33 3.11014C1025.63 3.11014 1025.93 3.11014 1026.25 3.14014C1027.72 3.22014 1049.2 3.33014 1143.19 3.33014C1271.15 3.33014 1461.32 3.14014 1464.95 3.14014C1465.01 3.14014 1465.1 3.14014 1465.24 3.14014C1473.24 3.14014 1483.41 7.12016 1485.74 18.3202C1488.32 30.7102 1515.27 185.05 1516.84 194.02C1517.3 195.47 1519.45 203.17 1515.32 208.98C1512.43 213.05 1507.34 215.11 1500.17 215.11C1499.97 215.11 1499.78 215.11 1499.58 215.11C1496.28 215.06 1390.85 215.03 1186.21 215.01C1186.24 234.65 1186.62 245.24 1187.06 257.41C1187.31 264.35 1187.59 272.21 1187.84 282.66C1188.03 290.46 1185.82 297.02 1181.8 300.67C1175.27 307.09 1168.07 307.83 1163.21 307.83L1163.17 307.84Z" fill="white"/>
  <path d="M804.01 57.89C804.01 57.89 805.83 34.01 836.48 33.59C867.13 33.17 950.85 33.59 950.85 33.59C950.85 33.59 955.99 32.96 957.52 38.05C959.04 43.13 962.32 59.45 962.32 59.45C962.32 59.45 963.77 64.28 958.12 64.28H848.5C848.5 64.28 839.23 64.98 838.46 73.1C837.69 81.22 849.64 83.26 858.53 84.53C867.42 85.8 950.23 97.48 950.23 97.48C950.23 97.48 973.89 99.33 981.56 113.53C990.05 129.27 992.15 146.5 983.26 164.54C974.437 182.443 958.011 182.49 951.302 182.51L951.15 182.51C944.23 182.53 839.72 182.51 839.72 182.51C839.72 182.51 829.77 183.16 827.8 175.28C825.73 167 823.43 155.68 823.43 155.68C823.43 155.68 822.06 147.52 831.46 147.52C840.86 147.52 938.81 150.57 938.81 150.57C938.81 150.57 950.77 151.95 951.91 140.48C952.876 130.79 943.961 129.582 936.734 128.603C936.405 128.558 936.08 128.514 935.76 128.47C928.39 127.45 833.64 111.96 833.64 111.96C833.64 111.96 815.6 109.17 811.03 95.96C806.46 82.75 802.86 63.53 804.01 57.89Z" fill="#FF4242"/>
  <path d="M574.84 101.13H519.46L512.18 124.6H535.72L528.23 148.73C528.23 148.73 505.56 148.15 498 148.1C488.2 148.04 471.65 146.53 461.68 133.3C450.45 118.41 458.34 96.3902 467.14 85.9602C475.94 75.5302 488.45 65.2702 516.82 64.3002C545.18 63.3202 567.03 64.3002 567.03 64.3002C567.03 64.3002 570.62 65.2802 572.9 59.0802C575.18 52.8902 580.07 37.8902 580.07 37.8902C580.07 37.8902 582.03 33.8502 575.51 33.5902C568.99 33.3302 510.31 33.5902 510.31 33.5902C510.31 33.5902 466.86 36.8002 442.17 62.0202C417.48 87.2402 418.7 120.05 422.28 133.09C425.87 146.13 439.29 181.6 500.72 182.52H548.5C548.5 182.52 555.25 183.04 557.29 176.44C559.87 168.12 578.5 108.09 578.5 108.09C578.5 108.09 581.05 101.14 574.85 101.14L574.84 101.13Z" fill="#FF4242"/>
  <path d="M259.41 40.2102C259.41 40.2102 260.37 33.6802 267.3 33.6802H376.45C376.45 33.6802 380.85 33.6302 381.87 36.9102C383.09 40.8502 389.48 61.4402 389.48 61.4402C389.48 61.4402 390.4 64.2702 386.85 64.2702H382.2C382.2 64.2702 378.49 63.8502 379.75 67.8602C381.01 71.8702 413.82 177.64 413.82 177.64C413.82 177.64 415.73 182.5 410.7 182.5H382.77C382.77 182.5 377.54 182.72 376.06 177.95L362.33 133.71H318.21L308.09 101.1H352.21L341.86 67.7502C341.86 67.7502 340.39 64.2502 336.31 64.2202C330.04 64.1602 297.68 64.2202 297.68 64.2202C297.68 64.2202 293.11 63.4702 291.91 69.9202C291.18 73.8502 271.62 179.46 271.62 179.46C271.62 179.46 271.13 182.49 267.6 182.49H237.32C237.32 182.49 233.05 182.25 233.92 177.54C235.01 171.66 259.41 40.1902 259.41 40.1902V40.2102Z" fill="#FF4242"/>
  <path d="M41.3901 177.67L67.5301 36.8001L67.5201 36.7902C67.9801 33.5902 71.0701 33.7002 71.0701 33.7002H87.5801C90.9201 33.7002 92.3201 35.6101 92.3201 35.6101C92.3201 35.6101 170.14 121.59 174.9 125.73C176.945 127.51 178.109 127.052 179.207 126.619L179.28 126.59C180.52 126.1 181.23 123.32 181.23 123.32C181.23 123.32 196.62 40.3401 197.28 36.8601C197.94 33.3801 201.26 33.7201 201.26 33.7201H231.23C236.2 33.7201 235.19 38.0601 235.19 38.0601C235.19 38.0601 209.75 175.68 208.96 179.37C208.29 182.46 205.76 182.5 205.76 182.5H184.17C180.26 182.5 177.95 179.58 177.95 179.58C177.95 179.58 99.8001 95.0902 96.8601 92.6002C95.4801 91.4302 94.9202 93.3902 94.9202 93.3902C94.9202 93.3902 80.3601 171.86 79.2701 177.74C78.4501 182.16 74.4001 182.5 74.4001 182.5C74.4001 182.5 49.6801 182.49 44.6701 182.49C40.4901 182.49 41.3901 177.67 41.3901 177.67Z" fill="#FF4242"/>
  <path d="M625.08 39.9302C625.08 39.9302 625.57 33.8002 631.85 33.7202C638.95 33.6302 733.94 33.7202 733.94 33.7202C733.94 33.7202 738.85 33.4602 739.94 38.3102C740.94 42.8002 744.81 60.1402 744.81 60.1402C744.81 60.1402 746.19 64.2602 742.64 64.2602H737.64C737.64 64.2602 734.04 64.1202 734.83 67.6702C735.8 72.0102 759.27 177.2 759.27 177.2C759.27 177.2 760.13 182.5 755.1 182.5H726.25C726.25 182.5 722.73 182.5 721.56 178.6L711.55 133.76H667.68L660.4 101.15H704.27L697.13 69.1502C697.13 69.1502 696.57 64.3302 690.79 64.3302C684.52 64.3302 659.11 64.2702 659.11 64.2702C659.11 64.2702 655.72 64.0702 654.63 67.6002C652.34 74.9902 619.89 179.53 619.89 179.53C619.89 179.53 619.23 182.51 615.71 182.51C611.7 182.51 585.84 182.5 585.84 182.5C585.84 182.5 580.78 182.6 582.2 178.02C584.16 171.71 625.07 39.9302 625.07 39.9302H625.08Z" fill="#FF4242"/>
  <path d="M778.31 125.92C788.229 125.92 796.27 117.879 796.27 107.96C796.27 98.041 788.229 90 778.31 90C768.391 90 760.35 98.041 760.35 107.96C760.35 117.879 768.391 125.92 778.31 125.92Z" fill="#FF4242"/>
  <path d="M1031.2 64.27H1036.58C1036.58 64.27 1039.79 64.27 1038.67 67.87C1029.69 96.81 1005.08 176.08 1005.08 176.08C1005.08 176.08 1001.93 182.45 1009.51 182.45H1037.18C1037.18 182.45 1040.88 182.89 1042.04 179.16C1046.37 165.2 1076.38 68.51 1076.38 68.51C1076.38 68.51 1077.24 64.3 1082.68 64.29C1091.25 64.27 1124.96 64.29 1124.96 64.29C1124.96 64.29 1129.28 64.27 1130.14 68.14C1131.13 72.59 1136.44 96.37 1136.44 96.37C1136.44 96.37 1137.43 101.12 1133 101.12H1093.3C1093.3 101.12 1099.12 127.2 1100.76 134.55C1103.74 134.58 1140.37 134.55 1140.37 134.55C1140.37 134.55 1144.91 134.35 1145.72 137.97C1146.73 142.49 1154.61 177.83 1154.61 177.83C1154.61 177.83 1155.06 182.5 1160.88 182.5H1188.68C1188.68 182.5 1193.65 182.94 1192.34 177.07C1191.1 171.5 1162.89 45.07 1162.89 45.07C1162.89 45.07 1161.48 33.71 1149.46 33.71H1041.49C1041.49 33.71 1037.79 33.28 1036.59 37.16C1034.97 42.39 1029.03 61.52 1029.03 61.52C1029.03 61.52 1027.84 64.26 1031.2 64.26V64.27Z" fill="#FF4242"/>
  <path d="M1190.83 36.7702L1222.38 178.14C1222.38 178.14 1223.36 182.51 1227.16 182.51H1262.31C1262.31 182.51 1267.7 182.92 1266.26 176.71C1264.83 170.5 1255.16 126.96 1255.16 126.96C1255.16 126.96 1266.54 123.4 1278.24 117.43L1365.11 180.44C1365.11 180.44 1367.1 182.45 1372.59 182.45C1378.08 182.45 1421.72 182.52 1421.72 182.52C1421.72 182.52 1429.07 180.68 1421.67 175.43C1414.27 170.18 1313.32 95.9602 1313.32 95.9602C1313.32 95.9602 1349.36 73.2902 1375.37 36.7702C1375.37 36.7702 1377.71 33.7202 1373.98 33.7202H1326.62C1326.62 33.7202 1324.29 33.4302 1322.86 36.2902C1321.43 39.1502 1297.8 70.4002 1252.82 86.0102C1252.82 86.0102 1246.55 88.4102 1245.3 82.8102C1243.06 72.7802 1235.11 37.1202 1235.11 37.1202C1235.11 37.1202 1234.55 33.7202 1231.16 33.7202H1193.88C1193.88 33.7202 1190.06 33.3202 1190.81 36.7702H1190.83Z" fill="#FF4242"/>
  <path d="M1416.75 35.9802C1416.75 35.9802 1416.18 33.7202 1419.52 33.7202H1451.77C1451.77 33.7202 1454.82 33.7002 1455.24 36.0402C1455.8 39.1002 1481.77 178.94 1481.77 178.94C1481.77 178.94 1482.62 182.51 1478.49 182.51H1448.05C1448.05 182.51 1444.08 182.79 1443.42 179.79C1442.47 175.46 1416.73 35.9802 1416.73 35.9802H1416.75Z" fill="#FF4242"/>
  <path fill-rule="evenodd" clip-rule="evenodd" d="M450.92 239.59C450.92 230.84 455.53 225.84 463.97 225.84C472.41 225.84 477.02 230.84 477.02 239.59V268.03C477.02 276.78 472.41 281.78 463.97 281.78C455.53 281.78 450.92 276.78 450.92 268.03V239.59ZM459.52 268.58C459.52 272.49 461.24 273.97 463.97 273.97C466.7 273.97 468.42 272.49 468.42 268.58V239.04C468.42 235.13 466.7 233.65 463.97 233.65C461.24 233.65 459.52 235.13 459.52 239.04V268.58Z" fill="#FF4242"/>
  <path d="M379.97 281.17H371.37V226.47H379.97V249.91H389.74V226.47H398.49V281.17H389.74V257.73H379.97V281.17Z" fill="#FF4242"/>
  <path fill-rule="evenodd" clip-rule="evenodd" d="M555.17 241C555.17 246.63 553.45 250.14 549.62 251.94V252.1C554.23 253.9 556.03 257.96 556.03 263.74V268.19C556.03 276.63 551.58 281.16 542.98 281.16H529.46V226.46H542.43C551.34 226.46 555.17 230.6 555.17 239.04V241ZM538.05 234.28V248.74H541.41C544.61 248.74 546.57 247.33 546.57 242.96V239.91C546.57 236 545.24 234.28 542.19 234.28H538.05ZM538.05 256.55V273.35H542.97C545.86 273.35 547.42 272.02 547.42 267.96V263.19C547.42 258.11 545.78 256.55 541.87 256.55H538.05Z" fill="#FF4242"/>
  <path fill-rule="evenodd" clip-rule="evenodd" d="M633.78 239.04V241C633.78 246.63 632.06 250.14 628.23 251.94V252.1C632.84 253.9 634.64 257.96 634.64 263.74V268.19C634.64 276.63 630.19 281.16 621.59 281.16H608.07V226.46H621.04C629.95 226.46 633.78 230.6 633.78 239.04ZM616.66 234.28V248.74H620.02C623.22 248.74 625.18 247.33 625.18 242.96V239.91C625.18 236 623.85 234.28 620.8 234.28H616.66ZM616.66 256.55V273.35H621.58C624.47 273.35 626.03 272.02 626.03 267.96V263.19C626.03 258.11 624.39 256.55 620.48 256.55H616.66Z" fill="#FF4242"/>
  <path d="M693.55 263.04L682.69 226.47H691.68L698.17 251.4H698.33L704.82 226.47H713.03L702.17 263.04V281.17H693.57V263.04H693.55Z" fill="#FF4242"/>
  <path d="M833.9 225.84C842.26 225.84 846.56 230.84 846.56 239.59V241.31H838.43V239.04C838.43 235.13 836.87 233.65 834.13 233.65C831.39 233.65 829.83 235.13 829.83 239.04C829.83 242.95 831.55 246 837.18 250.92C844.37 257.25 846.64 261.78 846.64 268.03C846.64 276.78 842.26 281.78 833.82 281.78C825.38 281.78 821 276.78 821 268.03V264.67H829.13V268.58C829.13 272.49 830.85 273.89 833.58 273.89C836.31 273.89 838.03 272.48 838.03 268.58C838.03 264.68 836.31 261.63 830.68 256.7C823.49 250.37 821.22 245.84 821.22 239.59C821.22 230.84 825.52 225.84 833.88 225.84H833.9Z" fill="#FF4242"/>
  <path d="M922.51 226.46V234.27H913.52V281.16H904.92V234.27H895.93V226.46H922.51Z" fill="#FF4242"/>
  <path fill-rule="evenodd" clip-rule="evenodd" d="M972.44 239.59C972.44 230.84 977.05 225.84 985.49 225.84C993.93 225.84 998.54 230.84 998.54 239.59V268.03C998.54 276.78 993.93 281.78 985.49 281.78C977.05 281.78 972.44 276.78 972.44 268.03V239.59ZM981.04 268.58C981.04 272.49 982.76 273.97 985.49 273.97C988.22 273.97 989.94 272.49 989.94 268.58V239.04C989.94 235.13 988.22 233.65 985.49 233.65C982.76 233.65 981.04 235.13 981.04 239.04V268.58Z" fill="#FF4242"/>
  <path fill-rule="evenodd" clip-rule="evenodd" d="M1068.95 281.17L1068.93 281.105C1068.47 279.733 1068.17 278.832 1068.17 274.45V265.85C1068.17 260.77 1066.45 258.89 1062.54 258.89H1059.57V281.16H1050.97V226.46H1063.94C1072.85 226.46 1076.68 230.6 1076.68 239.04V243.34C1076.68 248.97 1074.88 252.56 1071.05 254.36V254.52C1075.35 256.32 1076.75 260.38 1076.75 266.09V274.53C1076.75 277.19 1076.83 279.14 1077.69 281.17H1068.95ZM1059.57 234.28V251.08H1062.93C1066.13 251.08 1068.09 249.67 1068.09 245.3V239.91C1068.09 236 1066.76 234.28 1063.71 234.28H1059.57Z" fill="#FF4242"/>
  <path d="M1137.87 249.52H1149.67V257.33H1137.87V273.35H1152.72V281.16H1129.28V226.46H1152.72V234.27H1137.87V249.52Z" fill="#FF4242"/>
  <path fill-rule="evenodd" clip-rule="evenodd" d="M1183.57 302.59C1178.16 307.89 1171.48 310.47 1163.17 310.47V310.45H362.187C355.737 310.45 347.707 309.71 342.697 303.95C337.407 298.17 337.407 289.86 337.407 284.89V217.64C191.319 217.648 78.6341 217.656 38.4263 217.659L22.3965 217.66C20.5365 217.66 10.9865 217.3 4.81653 210.09C0.646527 205.22 -0.823477 198.64 0.436523 190.52C4.37652 165.22 31.4165 28.72 33.1265 20.1C33.2765 18.77 33.9765 14.5 36.7865 10.2C39.8165 5.54998 45.8765 0 57.4865 0H971.076C974.586 0 981.256 1.95998 984.076 9.28998C985.936 14.14 994.566 41.58 1000.47 60.6L1011.89 11.47C1012.56 6.91 1016.59 0.459991 1025.31 0.459991C1025.66 0.459991 1026.02 0.46999 1026.37 0.48999C1028.06 0.56999 1049.7 0.669983 1143.16 0.669983C1250.52 0.669983 1401.69 0.53554 1449.7 0.492836C1458.77 0.484773 1464.15 0.47998 1464.88 0.47998H1465.2C1466.9 0.47998 1471.34 0.69998 1476.02 2.72998C1482.59 5.58998 1486.84 10.79 1488.29 17.77C1490.75 29.6289 1515.39 170.596 1519.02 191.405L1519.37 193.38C1520.05 195.59 1522.13 203.87 1517.43 210.5C1514.02 215.31 1508.2 217.75 1500.13 217.75H1499.5C1496.24 217.7 1391.73 217.66 1188.82 217.65C1188.88 235.58 1189.24 245.73 1189.66 257.32C1189.91 264.26 1190.19 272.13 1190.44 282.59C1190.64 291.14 1188.14 298.42 1183.57 302.59ZM979.137 11.21C976.867 5.29999 971.066 5.29999 971.066 5.29999L971.076 5.32001H57.4965C39.5965 5.32001 38.3565 20.94 38.3565 20.94C38.3565 20.94 9.66652 165.63 5.65652 191.38C2.42652 212.12 21.2465 212.43 22.3965 212.43H22.4465C22.4465 212.43 155.947 212.41 342.687 212.4V284.924C342.686 289.444 342.686 296.211 346.647 300.47C350.307 304.74 357.007 305.21 362.197 305.21H1163.18C1171.89 305.22 1176.76 301.93 1179.96 298.77C1183.38 295.71 1185.35 289.8 1185.18 282.74C1184.93 272.288 1184.65 264.569 1184.4 257.483L1184.4 257.476C1183.93 244.572 1183.55 233.768 1183.55 212.39C1361.61 212.4 1495.87 212.43 1499.6 212.49H1500.15C1520.49 212.49 1514.25 194.67 1514.25 194.67C1514.25 194.67 1485.76 31.45 1483.14 18.86C1480.51 6.24999 1467.2 5.78 1465.22 5.78H1464.97C1464.97 5.78 1273.21 5.97 1143.17 5.97C1078.15 5.97 1028.56 5.92 1026.08 5.78C1025.81 5.76 1025.56 5.75998 1025.31 5.75998C1017.82 5.75998 1017.08 12.44 1017.08 12.44L1002.47 75.27C1002.28 76.07 1001.62 76.47 1000.96 76.47C1000.34 76.47 999.706 76.11 999.487 75.38C994.767 59.96 981.397 17.09 979.137 11.21Z" fill="#FF4242"/>
  <path fill-rule="evenodd" clip-rule="evenodd" d="M1514.26 24.3799H1511.22V11.2599C1512.42 11.0199 1514.1 10.8599 1516.26 10.8599C1518.74 10.8599 1519.86 11.2599 1520.82 11.8199C1521.54 12.3799 1522.1 13.4199 1522.1 14.6999C1522.1 16.1399 1520.98 17.2599 1519.38 17.7399V17.8999C1520.66 18.3799 1521.38 19.3399 1521.78 21.0999C1522.18 23.0999 1522.42 23.8999 1522.74 24.3799H1519.46C1519.14 23.99 1518.92 23.1251 1518.63 21.9996L1518.63 21.9985C1518.56 21.7386 1518.5 21.4649 1518.42 21.1799C1518.18 19.7399 1517.38 19.0999 1515.7 19.0999H1514.26V24.3799ZM1514.34 16.9399H1515.78C1517.46 16.9399 1518.82 16.3799 1518.82 15.0199C1518.82 13.8199 1517.94 13.0199 1516.02 13.0199C1515.22 13.0199 1514.66 13.0999 1514.34 13.1799V16.9399Z" fill="#FF4242"/>
  <path fill-rule="evenodd" clip-rule="evenodd" d="M1529.79 17.4999C1529.79 24.9399 1523.95 30.7799 1516.35 30.7799C1508.75 30.7799 1502.83 24.9399 1502.83 17.4999C1502.83 10.0599 1508.83 4.37988 1516.35 4.37988C1523.87 4.37988 1529.79 10.2199 1529.79 17.4999ZM1506.18 17.4999C1506.18 23.3399 1510.5 27.9799 1516.42 27.9799C1522.34 27.9799 1526.42 23.3399 1526.42 17.5799C1526.42 11.8199 1522.18 7.01987 1516.34 7.01987C1510.5 7.01987 1506.18 11.7399 1506.18 17.4999Z" fill="#FF4242"/>
</svg>
