<svg width="24" height="24" viewBox="0 0 24 24" fill="none" xmlns="http://www.w3.org/2000/svg">
<g clip-path="url(#clip0_2487_1606)">
<path d="M7.0301 0.0840472C5.7533 0.144287 4.88138 0.348047 4.11914 0.647567C3.33026 0.955007 2.66162 1.36757 1.99634 2.03525C1.33106 2.70293 0.921379 3.37205 0.616099 4.16213C0.320659 4.92605 0.120499 5.79869 0.0640995 7.07621C0.00769946 8.35373 -0.00478054 8.76437 0.00145946 12.0231C0.00769946 15.2818 0.0220995 15.6903 0.0840195 16.9704C0.144979 18.247 0.348019 19.1187 0.647539 19.8812C0.955459 20.67 1.36754 21.3384 2.03546 22.004C2.70338 22.6695 3.37202 23.0782 4.16402 23.384C4.92722 23.6789 5.8001 23.88 7.07738 23.936C8.35466 23.9919 8.76578 24.0048 12.0235 23.9986C15.2813 23.9924 15.6915 23.978 16.9714 23.9172C18.2513 23.8565 19.1184 23.652 19.8811 23.354C20.67 23.0453 21.3389 22.634 22.0039 21.9658C22.669 21.2976 23.0784 20.628 23.3835 19.8375C23.6791 19.0743 23.88 18.2014 23.9355 16.9251C23.9914 15.6442 24.0046 15.2352 23.9983 11.977C23.9921 8.71877 23.9775 8.31029 23.9167 7.03061C23.856 5.75093 23.6527 4.88189 23.3535 4.11893C23.0451 3.33005 22.6335 2.66213 21.9658 1.99613C21.2981 1.33013 20.628 0.920927 19.8377 0.616607C19.074 0.321167 18.2016 0.119807 16.9243 0.0646072C15.6471 0.00940721 15.2359 -0.0047528 11.977 0.0014872C8.71802 0.0077272 8.31002 0.0216472 7.0301 0.0840472ZM7.17026 21.7772C6.00026 21.7263 5.36498 21.5319 4.94162 21.3692C4.38098 21.1532 3.98162 20.892 3.5597 20.4742C3.13778 20.0564 2.87858 19.6556 2.6597 19.0961C2.4953 18.6728 2.2973 18.0382 2.24258 16.8682C2.18306 15.6036 2.17058 15.224 2.16362 12.0202C2.15666 8.81645 2.1689 8.43725 2.22434 7.17221C2.27426 6.00317 2.46986 5.36717 2.63234 4.94405C2.84834 4.38269 3.1085 3.98405 3.5273 3.56237C3.9461 3.14069 4.3457 2.88101 4.90562 2.66213C5.3285 2.49701 5.96306 2.30069 7.13258 2.24501C8.3981 2.18501 8.7773 2.17301 11.9806 2.16605C15.1839 2.15909 15.564 2.17109 16.83 2.22677C17.9991 2.27765 18.6353 2.47133 19.0579 2.63477C19.6188 2.85077 20.0179 3.11021 20.4396 3.52973C20.8613 3.94925 21.1212 4.34741 21.3401 4.90853C21.5055 5.33021 21.7018 5.96453 21.757 7.13477C21.8172 8.40029 21.8309 8.77973 21.8367 11.9828C21.8424 15.1858 21.8311 15.5662 21.7757 16.8308C21.7246 18.0008 21.5307 18.6363 21.3677 19.0601C21.1517 19.6205 20.8913 20.0201 20.4723 20.4416C20.0532 20.863 19.6541 21.1227 19.0939 21.3416C18.6715 21.5064 18.0363 21.7032 16.8677 21.7589C15.6022 21.8184 15.223 21.8309 12.0185 21.8379C8.81402 21.8448 8.43602 21.8319 7.1705 21.7772M16.9529 5.58653C16.9534 5.87135 17.0383 6.14964 17.197 6.38619C17.3556 6.62274 17.5808 6.80694 17.8442 6.91547C18.1075 7.02401 18.3971 7.05202 18.6764 6.99595C18.9556 6.93988 19.212 6.80226 19.413 6.60049C19.614 6.39872 19.7507 6.14186 19.8058 5.86241C19.8608 5.58295 19.8317 5.29345 19.7222 5.03051C19.6127 4.76758 19.4277 4.54302 19.1906 4.38524C18.9534 4.22747 18.6748 4.14356 18.39 4.14413C18.0082 4.14489 17.6423 4.29727 17.3728 4.56776C17.1033 4.83825 16.9523 5.2047 16.9529 5.58653ZM5.8385 12.012C5.84522 15.4152 8.60906 18.1678 12.0115 18.1613C15.414 18.1548 18.1685 15.3912 18.162 11.988C18.1555 8.58485 15.391 5.83157 11.988 5.83829C8.58506 5.84501 5.83202 8.60933 5.8385 12.012ZM7.99994 12.0077C7.99837 11.2166 8.23145 10.4428 8.66968 9.78407C9.10791 9.1254 9.73162 8.61146 10.4619 8.30726C11.1923 8.00306 11.9964 7.92225 12.7726 8.07506C13.5489 8.22787 14.2624 8.60742 14.8229 9.16574C15.3834 9.72405 15.7658 10.436 15.9217 11.2117C16.0776 11.9873 15.9999 12.7917 15.6986 13.5233C15.3973 14.2548 14.8859 14.8805 14.2289 15.3214C13.572 15.7622 12.7991 15.9983 12.0079 15.9999C11.4826 16.001 10.9622 15.8986 10.4765 15.6986C9.99076 15.4985 9.54918 15.2048 9.17699 14.834C8.8048 14.4633 8.50929 14.0229 8.30733 13.538C8.10537 13.053 8.00092 12.533 7.99994 12.0077Z" fill="white"/>
</g>
<defs>
<clipPath id="clip0_2487_1606">
<rect width="24" height="24" fill="white"/>
</clipPath>
</defs>
</svg>
